<svg xmlns="http://www.w3.org/2000/svg" width="128" height="128" version="1.0" viewBox="0 0 96 96"><defs><clipPath id="a"><path d="M13.5 0h69A13.5 13.5 0 0 1 96 13.5v69C96 89.957 89.957 96 82.5 96h-69C6.043 96 0 89.957 0 82.5v-69C0 6.043 6.043 0 13.5 0m0 0"/></clipPath><clipPath id="c"><path d="M0 0h96v96H0Zm0 0"/></clipPath><clipPath id="d"><path d="M13.5 0h69A13.5 13.5 0 0 1 96 13.5v69C96 89.957 89.957 96 82.5 96h-69C6.043 96 0 89.957 0 82.5v-69C0 6.043 6.043 0 13.5 0m0 0"/></clipPath><clipPath id="b"><path d="M0 0h96v96H0z"/></clipPath><clipPath id="f"><path d="M.777.367h64.028v14.606H.777Zm0 0"/></clipPath><clipPath id="g"><path d="M8.082.367h49.379a7.304 7.304 0 1 1 0 14.606H8.082A7.305 7.305 0 0 1 .777 7.672 7.306 7.306 0 0 1 8.082.367m0 0"/></clipPath><clipPath id="i"><path d="M.777.367h64.028v14.606H.777Zm0 0"/></clipPath><clipPath id="j"><path d="M8.082.367h49.379a7.304 7.304 0 1 1 0 14.606H8.082A7.305 7.305 0 0 1 .777 7.672 7.306 7.306 0 0 1 8.082.367m0 0"/></clipPath><clipPath id="h"><path d="M0 0h65v15H0z"/></clipPath><clipPath id="k"><path d="M1.234 8.07h63.989v6.903H1.234Zm0 0"/></clipPath><clipPath id="m"><path d="M.234.07h63.989v6.903H.234Zm0 0"/></clipPath><clipPath id="l"><path d="M0 0h65v7H0z"/></clipPath><clipPath id="e"><path d="M0 0h66v16H0z"/></clipPath><clipPath id="n"><path d="M27.816 10.086h3.293v20.437h-3.293Zm0 0"/></clipPath><clipPath id="o"><path d="M29.46 10.086c.911 0 1.65.738 1.65 1.648v17.141c0 .906-.739 1.645-1.65 1.645s-1.644-.739-1.644-1.645v-17.14c0-.91.735-1.65 1.645-1.65m0 0"/></clipPath><clipPath id="q"><path d="M.816.086H4.11v20.437H.816Zm0 0"/></clipPath><clipPath id="r"><path d="M2.46.086c.911 0 1.65.738 1.65 1.648v17.141c0 .906-.739 1.645-1.65 1.645S.817 19.78.817 18.875V1.735c0-.91.735-1.65 1.645-1.65m0 0"/></clipPath><clipPath id="p"><path d="M0 0h5v21H0z"/></clipPath><clipPath id="s"><path d="M64.582 10.086h3.371v20.441h-3.371Zm0 0"/></clipPath><clipPath id="t"><path d="M66.266 10.086c.449 0 .879.18 1.191.496.316.313.496.742.496 1.191v17.059a1.69 1.69 0 0 1-1.687 1.688c-.446 0-.875-.176-1.192-.493a1.7 1.7 0 0 1-.492-1.195V11.773a1.69 1.69 0 0 1 1.684-1.687m0 0"/></clipPath><clipPath id="v"><path d="M.582.086h3.371v20.441H.582Zm0 0"/></clipPath><clipPath id="w"><path d="M2.266.086c.449 0 .879.18 1.191.496.316.313.496.742.496 1.191v17.059a1.69 1.69 0 0 1-1.687 1.688c-.446 0-.875-.176-1.192-.493a1.7 1.7 0 0 1-.492-1.195V1.773A1.69 1.69 0 0 1 2.266.085m0 0"/></clipPath><clipPath id="u"><path d="M0 0h4v21H0z"/></clipPath><clipPath id="x"><path d="M14.023 20.305H82v65.25H14.023Zm0 0"/></clipPath><clipPath id="y"><path d="M81.969 33.055v40.101c0 7.04-5.711 12.746-12.75 12.746h-42.45c-7.039 0-12.746-5.707-12.746-12.746V33.055c0-7.043 5.707-12.75 12.747-12.75h42.449c7.039 0 12.75 5.707 12.75 12.75m0 0"/></clipPath><clipPath id="z"><path d="M59.727 45.988h12v11.684h-12Zm0 0"/></clipPath><clipPath id="A"><path d="M65.566 45.988h.301c1.551 0 3.035.617 4.133 1.711a5.85 5.85 0 0 1 1.71 4.13c0 1.55-.616 3.034-1.71 4.132a5.86 5.86 0 0 1-4.133 1.71h-.3a5.84 5.84 0 0 1-5.84-5.843 5.84 5.84 0 0 1 5.84-5.84m0 0"/></clipPath><clipPath id="C"><path d="M.727.988h12v11.684h-12Zm0 0"/></clipPath><clipPath id="D"><path d="M6.566.988h.301C8.418.988 9.902 1.605 11 2.7a5.85 5.85 0 0 1 1.71 4.13c0 1.55-.616 3.034-1.71 4.132a5.86 5.86 0 0 1-4.133 1.71h-.3a5.84 5.84 0 0 1-5.84-5.843 5.84 5.84 0 0 1 5.84-5.84m0 0"/></clipPath><clipPath id="B"><path d="M0 0h13v13H0z"/></clipPath><clipPath id="E"><path d="M23.383 45.988h12v11.684h-12Zm0 0"/></clipPath><clipPath id="F"><path d="M29.223 45.988h.304c1.547 0 3.035.617 4.13 1.711a5.85 5.85 0 0 1 1.71 4.13c0 1.55-.617 3.034-1.71 4.132a5.85 5.85 0 0 1-4.13 1.71h-.304a5.839 5.839 0 0 1-5.84-5.844 5.83 5.83 0 0 1 1.71-4.128 5.85 5.85 0 0 1 4.13-1.71m0 0"/></clipPath><clipPath id="H"><path d="M.383.988h12v11.684h-12Zm0 0"/></clipPath><clipPath id="I"><path d="M6.223.988h.304c1.547 0 3.036.617 4.13 1.711a5.85 5.85 0 0 1 1.71 4.13c0 1.55-.617 3.034-1.71 4.132a5.85 5.85 0 0 1-4.13 1.71h-.304a5.839 5.839 0 0 1-5.84-5.844A5.83 5.83 0 0 1 2.093 2.7 5.85 5.85 0 0 1 6.224.99m0 0"/></clipPath><clipPath id="G"><path d="M0 0h13v13H0z"/></clipPath><clipPath id="J"><path d="M41.555 45.988h12v11.684h-12Zm0 0"/></clipPath><clipPath id="K"><path d="M47.395 45.988h.3c1.551 0 3.035.617 4.133 1.711a5.85 5.85 0 0 1 1.711 4.13c0 1.55-.617 3.034-1.71 4.132a5.86 5.86 0 0 1-4.134 1.71h-.3a5.84 5.84 0 0 1-5.84-5.843 5.84 5.84 0 0 1 5.84-5.84m0 0"/></clipPath><clipPath id="M"><path d="M.555.988h12v11.684h-12Zm0 0"/></clipPath><clipPath id="N"><path d="M6.395.988h.3c1.551 0 3.035.617 4.133 1.711a5.85 5.85 0 0 1 1.711 4.13c0 1.55-.617 3.034-1.71 4.132a5.86 5.86 0 0 1-4.134 1.71h-.3a5.84 5.84 0 0 1-5.84-5.843 5.84 5.84 0 0 1 5.84-5.84m0 0"/></clipPath><clipPath id="L"><path d="M0 0h13v13H0z"/></clipPath><clipPath id="O"><path d="M23.383 62.668h12v11.68h-12Zm0 0"/></clipPath><clipPath id="P"><path d="M29.223 62.668h.304a5.84 5.84 0 1 1 0 11.68h-.304a5.83 5.83 0 0 1-4.13-1.711 5.82 5.82 0 0 1-1.71-4.13c0-1.55.613-3.034 1.71-4.128a5.83 5.83 0 0 1 4.13-1.711m0 0"/></clipPath><clipPath id="R"><path d="M.383.668h12v11.68h-12Zm0 0"/></clipPath><clipPath id="S"><path d="M6.223.668h.304a5.84 5.84 0 1 1 0 11.68h-.304a5.83 5.83 0 0 1-4.13-1.711 5.82 5.82 0 0 1-1.71-4.13c0-1.55.613-3.034 1.71-4.128A5.83 5.83 0 0 1 6.224.668m0 0"/></clipPath><clipPath id="Q"><path d="M0 0h13v13H0z"/></clipPath><clipPath id="T"><path d="M41.555 62.668h12v11.68h-12Zm0 0"/></clipPath><clipPath id="U"><path d="M47.395 62.668h.3a5.839 5.839 0 1 1 0 11.68h-.3a5.82 5.82 0 0 1-4.13-1.711 5.82 5.82 0 0 1-1.71-4.13c0-1.55.613-3.034 1.71-4.128a5.82 5.82 0 0 1 4.13-1.711m0 0"/></clipPath><clipPath id="W"><path d="M.555.668h12v11.68h-12Zm0 0"/></clipPath><clipPath id="X"><path d="M6.395.668h.3a5.839 5.839 0 1 1 0 11.68h-.3a5.82 5.82 0 0 1-4.13-1.711 5.82 5.82 0 0 1-1.71-4.13c0-1.55.613-3.034 1.71-4.128A5.82 5.82 0 0 1 6.396.668m0 0"/></clipPath><clipPath id="V"><path d="M0 0h13v13H0z"/></clipPath><clipPath id="Y"><path d="M59.727 62.668h12v11.68h-12Zm0 0"/></clipPath><clipPath id="Z"><path d="M65.566 62.668h.301a5.839 5.839 0 1 1 0 11.68h-.3a5.82 5.82 0 0 1-4.13-1.711 5.82 5.82 0 0 1-1.71-4.13c0-1.55.613-3.034 1.71-4.128a5.82 5.82 0 0 1 4.13-1.711m0 0"/></clipPath><clipPath id="ab"><path d="M.727.668h12v11.68h-12Zm0 0"/></clipPath><clipPath id="ac"><path d="M6.566.668h.301a5.839 5.839 0 1 1 0 11.68h-.3a5.82 5.82 0 0 1-4.13-1.711 5.82 5.82 0 0 1-1.71-4.13c0-1.55.613-3.034 1.71-4.128A5.82 5.82 0 0 1 6.568.668m0 0"/></clipPath><clipPath id="aa"><path d="M0 0h13v13H0z"/></clipPath></defs><g clip-path="url(#a)"><g clip-path="url(#b)"><g clip-path="url(#c)"><g clip-path="url(#d)"><path fill="#fff" d="M-21.12-21.12h138.24v138.24H-21.12z"/></g></g></g><path fill="none" stroke="#000" stroke-width="3" d="M13.5 0h69A13.5 13.5 0 0 1 96 13.5v69C96 89.957 89.957 96 82.5 96h-69C6.043 96 0 89.957 0 82.5v-69C0 6.043 6.043 0 13.5 0Zm0 0"/></g><g clip-path="url(#e)" transform="translate(15 22)"><g clip-path="url(#f)"><g clip-path="url(#g)"><g clip-path="url(#h)"><g clip-path="url(#i)"><g clip-path="url(#j)"><path fill="#fb5fab" d="M.777.367h63.97v14.606H.776Zm0 0"/></g></g></g></g></g><g clip-path="url(#k)"><g clip-path="url(#l)" transform="translate(1 8)"><g clip-path="url(#m)"><path fill="#fb5fab" d="M.234.07h63.977v6.903H.234Zm0 0"/></g></g></g></g><g clip-path="url(#n)"><g clip-path="url(#o)"><g clip-path="url(#p)" transform="translate(27 10)"><g clip-path="url(#q)"><g clip-path="url(#r)"><path fill="#0f1131" d="M.816.086H4.11v20.437H.816Zm0 0"/></g></g></g></g></g><g clip-path="url(#s)"><g clip-path="url(#t)"><g clip-path="url(#u)" transform="translate(64 10)"><g clip-path="url(#v)"><g clip-path="url(#w)"><path fill="#0f1131" d="M.582.086h3.371v20.426H.582Zm0 0"/></g></g></g></g></g><g clip-path="url(#x)"><g clip-path="url(#y)"><path fill="none" stroke="#0f1131" stroke-width="6" d="M81.969 33.055v40.101c0 7.04-5.711 12.746-12.75 12.746h-42.45c-7.039 0-12.746-5.707-12.746-12.746V33.055c0-7.043 5.707-12.75 12.747-12.75h42.449c7.039 0 12.75 5.707 12.75 12.75Zm0 0"/></g></g><g clip-path="url(#z)"><g clip-path="url(#A)"><g clip-path="url(#B)" transform="translate(59 45)"><g clip-path="url(#C)"><g clip-path="url(#D)"><path fill="#fb5fab" d="M.727.988h12v11.684h-12Zm0 0"/></g></g></g></g></g><g clip-path="url(#E)"><g clip-path="url(#F)"><g clip-path="url(#G)" transform="translate(23 45)"><g clip-path="url(#H)"><g clip-path="url(#I)"><path fill="#fb5fab" d="M.383.988h12v11.684h-12Zm0 0"/></g></g></g></g></g><g clip-path="url(#J)"><g clip-path="url(#K)"><g clip-path="url(#L)" transform="translate(41 45)"><g clip-path="url(#M)"><g clip-path="url(#N)"><path fill="#fb5fab" d="M.555.988h12v11.684h-12Zm0 0"/></g></g></g></g></g><g clip-path="url(#O)"><g clip-path="url(#P)"><g clip-path="url(#Q)" transform="translate(23 62)"><g clip-path="url(#R)"><g clip-path="url(#S)"><path fill="#fb5fab" d="M.383.668h12v11.68h-12Zm0 0"/></g></g></g></g></g><g clip-path="url(#T)"><g clip-path="url(#U)"><g clip-path="url(#V)" transform="translate(41 62)"><g clip-path="url(#W)"><g clip-path="url(#X)"><path fill="#fb5fab" d="M.555.668h12v11.68h-12Zm0 0"/></g></g></g></g></g><g clip-path="url(#Y)"><g clip-path="url(#Z)"><g clip-path="url(#aa)" transform="translate(59 62)"><g clip-path="url(#ab)"><g clip-path="url(#ac)"><path fill="#fb5fab" d="M.727.668h12v11.68h-12Zm0 0"/></g></g></g></g></g></svg>